<svg width="28" height="28" viewBox="0 0 28 28" fill="none" xmlns="http://www.w3.org/2000/svg">
    <path d="M9.188 13.563a1.312 1.312 0 1 1-2.625 0 1.312 1.312 0 0 1 2.625 0zM14.438 13.563a1.312 1.312 0 1 1-2.625 0 1.312 1.312 0 0 1 2.624 0zM19.688 13.563a1.312 1.312 0 1 1-2.625 0 1.312 1.312 0 0 1 2.625 0z" fill="#fff"/>
    <path d="M21.875 4.375H6.125a3.5 3.5 0 0 0-3.5 3.5v8.75a3.5 3.5 0 0 0 3.5 3.5h9.625l5.25 3.5v-3.5h.875a3.5 3.5 0 0 0 3.5-3.5v-8.75a3.5 3.5 0 0 0-3.5-3.5z" stroke="#fff" stroke-width="1.5" stroke-linecap="round" stroke-linejoin="round"/>
</svg>
